<svg xmlns="http://www.w3.org/2000/svg" width="1024" height="1024"><path fill="#090A09" d="m484.166 127.823 2.637-.038 2.888-.023 3.019-.03c3.284-.025 6.568-.037 9.852-.045l3.396-.007c28.184-.007 56.19 2.077 83.866 7.586 2.652.52 4.77.731 7.508.718 2.95.018 4.086.703 6.668 2.016 1.444.428 2.901.81 4.367 1.156l2.639.645 2.869.699c19.8 4.998 39.302 11.591 58.125 19.5l3 1c1.366.68 2.719 1.387 4.062 2.11l2.401 1.281L684 165.75c11.006 6.824 11.006 6.824 23 10.25v3l2.238.852c14.432 6 28.085 16.844 40.38 26.406 2.233 1.753 2.233 1.753 4.39 2.672 2.849 1.53 4.738 3.76 6.992 6.07 2.15 1.919 4.358 3.768 6.562 5.625C781.526 232.509 795.187 244.938 807 259l2.441 2.812c10.44 12.072 19.83 24.799 28.55 38.161 3.032 4.637 6.075 9.093 10.009 13.027v3c1.24 2.556 1.24 2.556 2.875 5.187l1.617 2.731L854 326h2l.312 2.645c.725 3.537 1.883 5.932 3.688 9.042 1.614 2.805 2.975 5.24 4 8.313 1.084 2.962 1.75 4.75 4 7 .704 1.987 1.366 3.99 2 6a357 357 0 0 0 2.285 5.621C894 417.681 894 417.681 894 440l2 1c.361 2.305.361 2.305.531 5.32.487 7.216 1.405 14.338 2.364 21.504 1.927 14.859 2.346 29.588 2.355 44.551l.002 2.995c-.102 94.341-33.928 183.047-95.9 254.048-1.397 1.635-2.735 3.31-4.079 4.988L799 777h-2l-.648 1.637c-1.838 3.213-4.349 5.612-6.977 8.175l-1.649 1.625A238 238 0 0 1 775 800l-2.969 2.598c-18.594 16.236-38.333 30.888-59.629 43.394a403 403 0 0 0-9.84 6.008l-2.683 1.687L698 855v1l-1.608.48c-6.207 1.95-11.838 4.607-17.642 7.52-29.398 14.33-60.808 23.894-92.768 30.57a108 108 0 0 0-4.074.97c-2.53.61-4.999.735-7.596.897a239 239 0 0 0-13.273 1.284c-16.488 2.068-32.995 2.518-49.602 2.529l-2.816.002c-40.574-.046-81.298-5.508-119.875-18.424-3.038-1.014-5.519-1.828-8.746-1.828v-2l-1.8-.516a180 180 0 0 1-16.755-5.812c-2.628-.722-3.917-.59-6.445.328l-1-3a97 97 0 0 0-7.188-3.438c-14.623-6.603-28.691-14.447-42.334-22.884-2.49-1.535-4.687-2.748-7.478-3.678a532 532 0 0 1-3-3 322 322 0 0 0-6.375-4.563c-25.59-18.094-51.257-39.184-70.637-63.945-2.162-2.71-4.456-5.252-6.8-7.805-3.118-3.41-5.701-6.808-8.188-10.687l-2-1a258 258 0 0 1-2.876-5.048c-1.784-3.099-3.89-5.944-5.999-8.827q-1.322-1.83-2.64-3.664l-1.284-1.782c-1.638-2.29-3.243-4.6-4.826-6.929l-1.414-2.078C180 718 180 718 180 716h-2l-1 2 .679-1.643c.466-3.42-.84-5.106-2.538-8.076l-1.883-3.324-2.008-3.457-1.96-3.457c-3.203-5.75-3.203-5.75-6.94-11.15-1.462-2.05-1.813-3.455-2.35-5.893a247 247 0 0 0-2.504-6.078l-1.494-3.516-1.565-3.656-1.576-3.703A5744 5744 0 0 0 149 655h-2l-.188-3.063c-.609-5.133-2.36-9.9-4.084-14.744-1.013-2.877-1.728-5.116-1.728-8.193h-3l-.184-1.898-.254-2.477c-.08-.812-.162-1.624-.246-2.46-.207-2.208-.207-2.208-1.316-4.165a146 146 0 0 1-.883-4.797c-.738-4.2-1.565-8.366-2.484-12.531-5.856-26.715-9.243-53.289-9.633-80.672h-2a701 701 0 0 1-.063-4.813l-.035-2.707C121 510 121 510 122 507v-3.125c0-2.875 0-2.875 1-3.875.254-2.202.446-4.41.613-6.621l.337-4.233.178-2.263c3.71-46.55 13.734-92.525 33.872-134.883l.981-2.068a412 412 0 0 1 5.889-11.754c1.285-2.478 2.557-4.963 3.83-7.448 4.72-9.17 9.453-18.215 15.3-26.73l1.282-1.87c1.901-2.771 3.803-5.542 5.724-8.3a223 223 0 0 0 7.863-12.123c1.706-2.575 3.925-4.553 6.131-6.707a313 313 0 0 0 3.75-4.688c3.529-4.472 7.244-8.717 11.082-12.925 2.537-2.793 5.007-5.639 7.465-8.5 2.152-2.384 4.424-4.624 6.703-6.887a3028 3028 0 0 0 3.602-3.672c6.674-6.782 13.293-13.391 20.785-19.273 2.792-2.196 5.477-4.494 8.175-6.805 18.251-15.193 38.403-27.837 59.278-39.08a511 511 0 0 0 6.222-3.44c18.01-9.965 37.37-17.43 56.938-23.73l2.714-.878c24.605-7.843 49.563-12.28 75.19-14.918l2.2-.228c1.977-.202 3.955-.396 5.932-.59 3.32-.432 5.732-1.519 9.13-1.563m14.683 50.318c-92.572 4.47-177.336 43.585-240.83 110.96-1.721 1.93-3.373 3.904-5.019 5.899l-1.32 1.565c-12.565 14.91-23.97 30.707-33.649 47.646a308 308 0 0 1-3.156 5.32c-28.934 48.657-42.09 107.32-42.125 163.469l-.002 2.956c.083 75.84 25.884 153.52 75.799 211.347a230 230 0 0 1 4.11 4.963c6.509 7.955 13.663 15.265 20.905 22.546l1.464 1.48A229 229 0 0 0 296 775l2.102 1.692C316.293 791.288 336.212 803.464 357 814l2.913 1.484 2.919 1.418 2.636 1.293c2.932.932 4.611.652 7.532-.195v3c40.719 18.82 87.67 28.691 132.497 28.014l2.929-.041 2.606-.055C513 849 513 849 514 850c55.622 1.948 113.708-14.497 162.181-41.008 1.638-.893 3.285-1.77 4.932-2.644 9.47-5.05 18.344-10.93 27.2-16.973l2.03-1.38c4.075-2.803 7.876-5.798 11.657-8.995a967 967 0 0 1 6.25-4.75c5.86-4.469 11.342-9.24 16.75-14.25q1.57-1.418 3.145-2.832l3.23-2.918 2.96-2.672c2.474-2.393 4.521-4.896 6.665-7.578l3-2v-3l1.762-.758c15.131-8.397 27.085-31.808 35.98-46.205a464 464 0 0 1 2.501-4.004C822.34 659.35 834.075 626.832 842 594l.73-3c6.135-25.582 8.491-51.177 8.457-77.438l-.001-2.663c-.042-22.388-2.131-43.871-6.186-65.899h-3l2-1c-2.993-25.048-12.773-50.546-24-73l-1.496-3.063C808.156 346.877 796.346 327.578 782 309l-1.95-2.54c-22.7-29.207-22.7-29.207-52.05-50.46v-2c-1.504-1.385-1.504-1.385-3.48-2.754l-2.22-1.61L720 248l-2.077-1.5C703.885 236.4 689.53 226.69 674 219a2799 2799 0 0 1-9.512-5.078C619.583 189.9 568.421 180.262 518 178l-2.39-.11c-5.605-.218-11.163 0-16.761.25M122 516l1 3Zm17 110 1 2Z"/><path fill="#828990" d="m497.117 229.797 2.564-.022c26.61-.172 51.711 1.367 77.59 7.887l3.627.912 3.209.831c2.85.694 2.85.694 5.65.56C592 240 592 240 594 242a94 94 0 0 0 5.223 1.96l3.284 1.162 3.556 1.253c31.9 11.532 60.76 28.083 86.937 49.625l1.664 1.352C709.109 309.133 722.554 322.277 734 337l2.004 2.3c24.124 27.856 40.965 63.467 50.996 98.7l.667 2.272c8.925 30.606 12.02 62.972 9.333 94.728l-.238 3.021C792.827 585.538 776.116 634.231 748 673l-2.34 3.227A492 492 0 0 1 739 685l-2.023 2.613c-4.188 5.321-8.6 10.379-13.192 15.356-1.83 1.908-1.83 1.908-2.785 4.031h-2l-.75 1.875c-1.487 2.529-2.687 2.843-5.25 4.125l-.937 1.875c-1.444 2.886-3.515 4.17-6.063 6.125l-2.187 2.188c-14.438 14.437-31.08 26.381-48.72 36.596a411 411 0 0 0-5.894 3.505c-40.7 24.173-89.516 35.974-136.636 35.899l-2.286-.003c-27.193-.073-53.395-4.282-79.535-11.853-4.544-1.312-9.115-2.35-13.742-3.332v-2l-6 1-2-3c-2.063-1.154-2.063-1.154-4.523-2.094l-2.818-1.168-3.034-1.238c-10.702-4.488-20.781-9.717-30.813-15.535-1.953-1.105-1.953-1.105-4.812-1.965a352 352 0 0 1-5-4c-1.876-1.341-3.773-2.648-5.671-3.957C328.919 733.86 306.427 714.61 289 692l-2.414-3.04C260.674 656.16 227.746 602.599 230 559l-2-1c-.379-2.992-.379-2.992-.562-6.875l-.192-3.805-.103-2.082c-.156-2.437-.404-4.856-.655-7.285-.659-7.102-.732-14.2-.738-21.328l-.002-2.167c.09-60.716 19.14-122.418 57.202-170.218l1.566-1.967 1.383-1.705c1.303-1.696 1.303-1.696 2.101-4.568a139 139 0 0 1 5-5 801 801 0 0 0 3.75-3.687l1.797-1.762c1.55-1.506 1.55-1.506 2.453-3.551h2l.742-1.73c3.616-6.524 10.495-11.618 16.119-16.422 2.132-1.842 4.221-3.724 6.31-5.614C350.107 276.955 378.305 260.726 408 249l2.335-.93c27.223-10.74 57.385-18.108 86.782-18.273M345.493 327.71a958 958 0 0 1-4.31 3.691l-2.495 2.16c-.719.62-1.437 1.24-2.176 1.88-1.744 1.435-1.744 1.435-1.512 3.558h-2c-1.369 1.275-1.369 1.275-2.812 3.063-2.341 2.767-4.695 5.514-7.118 8.21C280.34 398.108 257.36 461.848 260 526c.418 6.695 1.167 13.346 2 20l.276 2.314c6.28 51 31.028 98.705 66.072 135.846 2.047 2.192 4 4.4 5.902 6.715 2.584 3.063 5.47 5.62 8.527 8.203q2.293 1.986 4.477 4.094C390 744.112 452.023 764.21 510.25 764.25l2.697.002c13.903-.017 27.364-.657 41.053-3.252l2.688-.472C581.47 756.12 605.782 747.821 628 736l2.043-1.086c17.183-9.255 32.75-20.858 47.462-33.62a620 620 0 0 1 4.046-3.466C690.368 690.151 699.119 681.49 706 672l2.207-2.68c35.817-43.638 55.308-99.322 55.168-155.633l-.003-2.63c-.106-32.04-6.313-62.723-19.372-92.057l-1.07-2.424c-9.596-21.52-21.893-41.35-37.09-59.377C704 355 704 355 702.379 352.707L701 351h-2l-.772-1.754c-2.325-4.253-6.063-7.417-9.478-10.808l-2.454-2.444a182 182 0 0 0-19.684-16.784c-1.583-1.188-3.123-2.431-4.663-3.675C628.953 288.995 587.576 272.537 546 266l-2.124-.355c-71.866-11.666-144.414 15.443-198.383 62.066"/><path fill="#A8A8A9" d="M0 0h1024l-1 3V1H1v1022h1023v1H0z"/><path fill="#7D8287" d="m559 793-4 1v2c-14.717 2.194-29.2 3.31-44.062 3.313l-2.209.01c-7.81.02-15.163-.206-22.729-2.323v-1l1.866-.025c6.491-.086 12.982-.186 19.472-.292q3.619-.057 7.238-.105c12.22-.162 24.286-.322 36.385-2.162A48 48 0 0 1 559 793"/><path fill="#7A7F84" d="M480 764h62v1c-20.516 3.24-41.47 3.006-62 0z"/><path fill="#7E8286" d="M488 230q8.78-.075 17.56-.11 2.984-.016 5.968-.04c2.867-.025 5.734-.037 8.6-.045l2.675-.032c5.13 0 9.337.562 14.197 2.227v1h-55v-1h6z"/><path fill="#787D80" d="M794 483h1c1.919 7.386 2.457 14.449 2.688 22.063l.122 3.594c.256 8.847.067 17.535-.81 26.343h-2q-.219-7.01-.427-14.02-.072-2.372-.146-4.744A900 900 0 0 1 794 483"/><path fill="#606161" d="M467 847c5.083-.101 10.067-.033 15.125.5 7.607.722 15.23.549 22.862.463l3.087-.025 2.8-.036C513 848 513 848 514 849a91 91 0 0 0 5.129.098l3.135-.01 3.298-.025 3.311-.014q4.064-.018 8.127-.049v1c-23.006 3.082-47.075.704-70-2z"/><path fill="#7C8184" d="M734 340c4.495 2.255 6.98 5.237 9.75 9.313l1.282 1.85A805 805 0 0 1 749 357l1.351 1.96a506 506 0 0 1 3.837 5.665l1.208 1.755c2.696 4.123 2.696 4.123 2.199 6.805L757 375l-1.358-2.06a4347 4347 0 0 0-5.093-7.7 2545 2545 0 0 1-3.246-4.918c-3.806-5.735-7.7-11.278-12.068-16.6C734 342 734 342 734 340"/><path fill="#2E2E2D" d="m263 215 2 1c-4.816 4.917-9.68 9.697-14.898 14.188C243.496 235.884 237.077 241.74 231 248l-2-1 2.023-2.016a895 895 0 0 0 6.579-6.656c6.852-6.96 13.657-13.7 21.359-19.726 2.104-1.588 2.104-1.588 4.039-3.602"/><path fill="#73787B" d="M229 542h1q1.076 6.27 2.136 12.543.362 2.131.728 4.262.525 3.072 1.042 6.144l.635 3.73c.392 2.837.554 5.465.459 8.321-2.848-2.388-3.543-4.25-4.187-7.875-.16-.843-.318-1.686-.481-2.555-.33-2.555-.392-4.997-.332-7.57l-2-1z"/><path fill="#83888B" d="m282 345 3 1-1.114 1.617q-2.538 3.69-5.074 7.383l-1.751 2.543A367 367 0 0 0 267 373c-.794-2.283-1.195-3.506-.29-5.796l1.169-1.813 1.286-2.028 1.397-2.113 1.39-2.16c3.153-4.856 6.454-9.55 10.048-14.09"/><path fill="#343535" d="m780 722 1 3c-1.047 1.621-1.047 1.621-2.75 3.438l-1.941 2.105L774 733q-1.391 1.523-2.777 3.05c-3.996 4.397-7.986 8.782-12.223 12.95l-2-1c3.75-4.875 3.75-4.875 6-6l1-3a750 750 0 0 1 4.879-4.04c4.191-3.874 7.604-8.478 11.121-12.96"/><path fill="#767B7F" d="M539 233c19.532-.383 19.532-.383 28 2v2l3 1c-10.416-.693-20.695-2.39-31-4z"/><path fill="#81868A" d="M407 743c5.55.576 10.26 2.021 15.438 4.063l2.216.853Q427.331 748.95 430 750v2l2 1c-5.774-.56-10.55-2.183-15.875-4.437l-2.336-.948c-5.66-2.356-5.66-2.356-6.789-4.615"/><path fill="#767A7D" d="M531 263c9.617-.56 18.617 1.152 28 3v1c-7.98.225-15.24-.128-23-2q-2.498-.51-5-1z"/><path fill="#7B8083" d="M611 746a232 232 0 0 1-14.875 6.313l-2.742 1.05C591 754 591 754 588 753h2v-2q4.118-1.55 8.25-3.062l2.355-.893 2.286-.83 2.094-.778c2.335-.507 3.769-.18 6.015.563"/><path fill="#7C8085" d="M654 308c3.957 1.725 7.234 4.315 10.625 6.938l1.773 1.341c2.73 2.1 4.675 3.83 6.602 6.721-4.677-.917-7.534-3.458-11.187-6.375l-1.944-1.5-1.85-1.46c-.555-.44-1.111-.878-1.684-1.33C655 311 655 311 654 308"/><path fill="#171717" d="M188 727c4.041 1.347 4.903 3.384 7 7v3h2c1.688 1.75 1.688 1.75 3 4-.418 2.14-.418 2.14-1 4a1403 1403 0 0 1-5.5-7.312l-1.59-2.092-1.504-2.022-1.396-1.856C188 730 188 730 188 727"/><path fill="#7D8287" d="M704 675c0 4.316-2.133 5.928-5 9h-2l-.75 1.813c-1.414 2.473-2.9 3.62-5.25 5.187.501-4.307 3.068-6.604 5.938-9.687l1.38-1.51c3.388-3.656 3.388-3.656 5.682-4.803"/><path fill="#92969A" d="M472 264h23v1q-6.343.756-12.687 1.5l-3.631.434-3.506.41-3.222.38c-2.674.25-5.27.328-7.954.276 3.088-1.765 4.233-2 8-2z"/><path fill="#777B7F" d="M790 566h1c.363 7.262.4 17.08-4.605 22.852L785 590a221 221 0 0 1 5-24"/><path fill="#787D83" d="M324 302v3c-4.343 4-4.343 4-7 4v2l2 1-7 5c0-5.476 2.436-7.29 6-11.187 1.927-1.747 3.622-2.794 6-3.813"/><path fill="#7A7E81" d="M688 735c-1.532 4.114-4.465 6.274-7.875 8.813l-1.605 1.271c-1.575 1.186-1.575 1.186-4.52 2.916-2.184-.392-2.184-.392-4-1 2.62-2.008 5.246-4.005 7.875-6l2.262-1.734 2.168-1.641 2-1.523C686 735 686 735 688 735"/><path fill="#7F8387" d="M603 247c6.61.49 11.95 2.334 18 5v3c-6.205-1.936-12.108-4.256-18-7z"/><path fill="#7C8084" d="M306 708c5.29 4.408 10.188 9.076 15 14l-3 1a979 979 0 0 1-6-5.812l-1.734-1.659c-1.48-1.453-2.879-2.987-4.266-4.529z"/><path fill="#6E7376" d="M794 536h1q.08 4.594.125 9.188l.05 2.619c.035 4.515-.02 8.094-2.175 12.193h-1c-.339-8.162.701-15.95 2-24"/><path fill="#373736" d="M476 130v1c-4.942 1.977-8.773 2.089-14 2l-1 1a102 102 0 0 1-5.562-.437l-3.067-.31L450 133v-1c17.856-2.296 17.856-2.296 26-2"/><path fill="#808487" d="M752 662c1 4 1 4-.871 7.234a204 204 0 0 1-2.567 3.516l-1.314 1.824A441 441 0 0 1 744 679l-3-1z"/><path fill="#7A7E82" d="M723 378c3.324 3.051 5.542 6.234 7.813 10.125l1.894 3.195L734 394l-1 2c-2.746-2.51-4.67-5.321-6.687-8.437l-1.887-2.872C723 382 723 382 723 378"/><path fill="#7D8286" d="m364 274-14 10-2-1c2.697-2.86 5.444-5.475 8.563-7.875l1.69-1.305C360 273 360 273 364 274"/><path fill="#787C80" d="M288 688h2c1.875 2.047 1.875 2.047 4 4.75l2.125 2.672c1.568 2.156 2.788 4.155 3.875 6.578-5.068-2.457-8.799-6.425-12-11z"/><path fill="#3A3B3B" d="M847 565c1.376 2.662 2.37 5.063 3 8h-2l.125 2.125c-.188 4.323-1.03 7.78-4.125 10.875.585-7.094 1.632-14.016 3-21"/><path fill="#7B8083" d="M778 610c1.162 2.866.995 4.016.004 7.016l-1.442 3.234-1.433 3.266L774 626h-2c.628-3.95 1.865-7.199 3.563-10.812l1.378-2.958z"/><path fill="#1F201F" d="m263 215 2 1a792 792 0 0 1-4.25 4.375l-2.39 2.46c-2.094 1.92-3.764 3.081-6.36 4.165 1.503-3.668 3.637-5.69 6.625-8.25l2.477-2.14z"/><path fill="#1E1D1D" d="m783 788 3 1c-3.494 3.596-7.111 6.835-11 10 .57-3.626 1.924-5.255 4.563-7.75l1.94-1.86c.495-.458.988-.917 1.497-1.39"/><path fill="#797D81" d="M600 783v2c-5.528 2.106-10.07 3.379-16 3 2.426-2.426 4.142-2.758 7.438-3.625.968-.26 1.936-.52 2.933-.79C597 783 597 783 600 783"/><path fill="#2D2E2E" d="M197 385c1 2 1 2 .004 5.04l-1.441 3.585-1.434 3.602L193 400c-1.11-1.676-1.11-1.676-2-4 .61-2.543.61-2.543 1.75-5.187l1.11-2.668C195 386 195 386 197 385"/><path fill="#1F1F1F" d="m298 193-12 8-2-2a346 346 0 0 1 4.75-3.562l2.672-2.004C294 192 294 192 298 193"/><path fill="#72777B" d="M431 244q-4.183 1.544-8.375 3.063l-2.406.892-2.305.83-2.126.778C414 250 414 250 412 249c1-2 1-2 4.273-3.105a347 347 0 0 1 4.102-1.083l2.078-.576c3.37-.888 5.174-1.36 8.547-.236"/><path fill="#90959B" d="M488 231v1h-6l1 3h-7v-1l-5-1v-1c5.72-.832 11.222-1.12 17-1"/><path fill="#7A7F83" d="M346 743a344 344 0 0 1 4.313 2.25l2.425 1.266c2.394 1.57 3.695 3.11 5.262 5.484-3.138-.636-5.521-1.708-8.25-3.375l-2.14-1.273L346 746z"/><path fill="#8A8F94" d="m264 452 4 1c-.857 8.571-.857 8.571-3 12-.593-4.376-1.138-8.575-1-13"/><path fill="#7A7F83" d="M677 286c4.172.519 6.254 1.712 9.313 4.563l2.113 1.94L690 294l-1 2a2095 2095 0 0 1-6-4.437l-1.734-1.276A198 198 0 0 1 677 287z"/><path fill="#1F1F1F" d="M310 183c-1.39 3.358-2.825 5.186-6 7-2.75.188-2.75.188-5 0 6.517-7 6.517-7 11-7"/><path fill="#757A7F" d="M581 756c-2.585 1.724-4.038 2.447-6.937 3.188l-2.028.542c-2.282.303-3.855-.042-6.035-.73 5.364-2.682 9.01-3.315 15-3"/><path fill="#8A8F94" d="m761 477 3 2c.363 2.242.363 2.242.313 4.875l-.012 2.617C764 489 764 489 762 493z"/><path fill="#777B7F" d="M756 449c3.409 3.409 3.93 8.322 4.125 13l-.125 2-1-3h-2c-1.327-3.981-1.07-7.85-1-12"/><path fill="#8A8F94" d="m244 414 3 2v2h-2l-.375 2.938L244 424l-2 1-2 3c.632-5.053 2.135-9.296 4-14"/><path fill="#2A2A29" d="m226 250 1 3c-3.804 3.92-7.816 7.491-12 11 1.578-3.71 3.907-6.3 6.625-9.25l2.477-2.703z"/><path fill="#94999E" d="M491.172 796.516 493 798c-6.11.1-11.974.071-18-1v-1c12.886-1.777 12.886-1.777 16.172.516"/><path fill="#73787D" d="m687 692 3 1-10 10-2-1z"/><path fill="#262727" d="M806 344h3c4.062 6.4 4.062 6.4 3.75 9.438L812 355c-6-7.714-6-7.714-6-11"/><path fill="#8D9298" d="M523 261h10l-1 2 4 2c-7.262.492-7.262.492-11-2z"/><path fill="#797E82" d="M571 238c5.842-.35 9.853-.167 15 3-3.718 1.24-5.439.57-9.187-.437l-3.293-.872L571 239z"/><path fill="#232322" d="M357 869c5.26-.316 8.446.334 13 3v2c-4.609-.72-8.672-2.313-13-4z"/><path fill="#424242" d="m697 796 2 1c-6.51 5.753-6.51 5.753-11 7l-2-1a675 675 0 0 1 5.375-3.562l3.023-2.004z"/><path fill="#7A7F84" d="m662 713 4 1-9 7-2-1z"/><path fill="#797D81" d="M278 674c2.932 2.853 5.643 5.65 8 9l-1 2c-2.648-2.578-4.944-4.916-7-8z"/><path fill="#7C8083" d="M760 648c.75 1.563.75 1.563 1 4-1.023 2.547-2.273 4.863-4 7l-3 1c1.566-4.308 3.683-8.062 6-12"/><path fill="#7A7F81" d="M275 423h2c-.492 7.385-.492 7.385-3.062 10.5L272 435c.743-4.084 1.83-8.02 3-12"/><path fill="#2F302F" d="M389 148c-3.97 2.223-8.638 4.478-13.219 3.55L374 151q2.618-1.048 5.25-2.062l2.953-1.16c2.837-.79 4.091-.802 6.797.222"/><path fill="#767B7E" d="m645 762 2 1c-3.072 3.395-6.14 5.876-10.812 6.188L634 769c3.467-2.774 7.064-4.96 11-7"/><path fill="#3D3D3D" d="M807 682c.59 1.867.59 1.867 1 4-1.437 2.125-1.437 2.125-3 4v2c-2.5 1.625-2.5 1.625-5 3 1.642-4.776 4.265-8.794 7-13"/><path fill="#757A7E" d="M749 428c2.176 2.176 2.719 3.56 3.688 6.438l.824 2.37C754 439 754 439 753 442c-2.714-4.774-4.566-8.344-4-14"/><path fill="#787D80" d="M759 377c3.3 1.1 3.61 1.456 5.25 4.313l1.078 1.8c.832 2.336.467 3.58-.328 5.887a984 984 0 0 1-3-4.875l-1.687-2.742C759 379 759 379 759 377"/><path fill="#2C2C2C" d="M783 310c2.763.381 3.841.836 5.813 2.875L790 315l-1 3c-3.488-2.21-4.73-4.086-6-8"/><path fill="#282827" d="m212 266 1 2a799 799 0 0 1-3.312 4.375l-1.864 2.46C206 277 206 277 203 279c1.49-3.283 3.386-5.93 5.625-8.75l1.914-2.422z"/><path fill="#272625" d="M669 160c5.53-.369 5.53-.369 7.75 1.375L678 163l2 2c-5.625.25-5.625.25-9-2v-2z"/><path fill="#7B8084" d="M231 564c2.18 1.759 2.937 2.694 3.512 5.48l.175 2.707.2 2.731L235 577c-2.18-1.759-2.937-2.694-3.512-5.48l-.175-2.707-.2-2.731z"/><path fill="#73787B" d="M264 461h1v10h-2l-1 4q.212-2.938.438-5.875c.08-1.09.162-2.181.246-3.305C263 463 263 463 264 461"/><path fill="#2D2E2E" d="M229 323c.652 1.766.652 1.766 1 4-.996 1.922-.996 1.922-2.437 3.75l-1.434 1.86L225 334l-2-3 1.938-.687c2.33-1.157 2.33-1.157 2.75-3.875L228 324z"/><path fill="#7C8085" d="M616 286c4.053 1.225 7.444 2.699 11 5-3.03 1.282-4.036.986-7.187-.25C617 289 617 289 616 286"/><path fill="#7B7F83" d="M443 272v2c-3.823 1.423-6.913 2.24-11 2 3.365-3.87 5.96-4 11-4"/><path fill="#7D8186" d="M656 272c3.949.564 6.756 1.657 10 4l1 3c-4.108-1.45-7.469-3.454-11-6z"/><path fill="#363637" d="M652 208c8.193.35 8.193.35 11.563 3.063L665 213c-2 1-2 1-4.812.313-3.29-1.355-5.533-2.97-8.188-5.313"/><path fill="#191918" d="M325 852c4.43 1.208 6.981 2.517 10 6-3.754 0-5.787-1.114-9-3z"/><path fill="#777C80" d="M613 779c-1 2-1 2-3.75 3.125-2.952.795-5.222 1.053-8.25.875 2.054-2.054 3.33-2.681 6-3.687l2.125-.825C611 778 611 778 613 779"/><path fill="#1C1C1C" d="M221 769c5.785 4.308 5.785 4.308 6.875 7.813L228 779l-7-7z"/><path fill="#7C8084" d="M266 656h2c4.093 6.45 4.093 6.45 3.621 9.234L271 667a397 397 0 0 1-2.5-3.812l-1.406-2.145C266 659 266 659 266 656"/><path fill="#1E1E1D" d="m716 840 2 3c-5.273 3.223-5.273 3.223-7 4l-2-1c2.257-2.335 4.28-4.187 7-6"/><path fill="#787D81" d="m421 749 9 1v2l2 1c-4.557-.438-7.577-.85-11-4"/><path fill="#777C7F" d="M780 423c3 2 3 2 4 5 .04 2.333.044 4.667 0 7-1.903-2.855-2.462-4.42-3.125-7.687l-.508-2.45z"/><path fill="#8A8F95" d="m287 396 2 3c-.84 3.432-1.485 5.485-4 8-.25-7.625-.25-7.625 2-11"/><path fill="#7E8386" d="M295 385c.75 1.625.75 1.625 1 4-1.812 3.25-1.812 3.25-4 6h-2c1.335-3.594 2.96-6.755 5-10"/><path fill="#232423" d="M174 321c.75 1.625.75 1.625 1 4-3.178 5.589-3.178 5.589-6 7 1.225-4.053 2.699-7.444 5-11"/><path fill="#303131" d="M390.313 198.875 392 200c-6.625 3-6.625 3-10 3 1-3 1-3 3.313-4.312 2.687-.688 2.687-.688 5 .187"/><path fill="#454646" d="m419.125 188.938 2.758.027L424 189c-3.004 2.003-4.71 2.493-8.187 3.125l-2.731.508L411 193l1-3c2.525-1.262 4.312-1.099 7.125-1.062"/><path fill="#3E3E3E" d="M448 133c-1.082 1.488-1.082 1.488-3 3-3.137.293-3.137.293-6.687.188l-3.575-.083L432 136v-1q2.592-.507 5.188-1l2.917-.562c2.688-.407 5.183-.517 7.895-.438"/><path fill="#4C4D4E" d="m565 846-2 1v2l-12-1v-1c4.724-.652 9.22-1.12 14-1"/><path fill="#1E1E1E" d="M193 736c4 1 4 1 5.813 2.813C200 741 200 741 199 745z"/><path fill="#20201F" d="M884 621h2c-.75 6.625-.75 6.625-3 10-1.158-4.054-.837-6.218 1-10"/><path fill="#8A8F94" d="M789 449h1c2.286 8.429 2.286 8.429 2 13l-1-3h-2c-.95-3.695-.95-6.305 0-10"/><path fill="#91959A" d="M453 268h11v1a311 311 0 0 1-4.25 1.063l-2.39.597c-2.464.355-4.016.109-6.36-.66h2z"/><path fill="#363636" d="M418 139c-2.583 2.122-4.618 3.683-8 4-2.25-.937-2.25-.937-4-2 4.12-1.292 7.668-2.263 12-2"/><path fill="#464747" d="m624 833-7 3v2h-2v-2l-4-1c1.6-.532 3.206-1.05 4.813-1.562l2.707-.88C621 832 621 832 624 833"/><path fill="#777C80" d="M271 363c0 4.246-1.818 6.385-4 10-.687-1.687-.687-1.687-1-4 2.262-4.63 2.262-4.63 5-6"/><path fill="#6F7478" d="m437 787 5.957.586C445 788 445 788 448 790c-7.508.37-7.508.37-10-1.5z"/><path fill="#141515" d="M144 387h3a129 129 0 0 1-2 7l-2 1z"/><path fill="#787C80" d="M716 368c4.875 4.625 4.875 4.625 6 8h-3c-2.108-2.888-3-4.385-3-8"/><path fill="#7A7E82" d="m282 345 3 1-5 7-1-4c1.438-2.25 1.438-2.25 3-4"/><path fill="#8B8E93" d="M627 293c5.538.615 5.538.615 7.875 2.563L636 297l-2 1c-2.475-1.114-4.679-2.582-7-4z"/><path fill="#1F1F1E" d="M730 194c3.871.574 6.082 2.487 9 5-3.735-.498-5.812-.875-9-3z"/><path fill="#454746" d="M568 181v2l-12-1v-1q2.154-.292 4.313-.562l2.425-.317C565 180 565 180 568 181"/><path fill="#2A2929" d="M589 136h11l-1 2c-7.412 1.294-7.412 1.294-10 0z"/><path fill="#8C9297" d="m643 726 2 1v3h-6zm3 1 2 1Z"/><path fill="#727779" d="M237 439c1.6 4.002.293 7.046-1 11h-1c-.25-7.625-.25-7.625 2-11"/><path fill="#2B2B2A" d="M139 402c1.125 1.625 1.125 1.625 2 4-.75 3.188-.75 3.188-2 6l-2 1c1-7.429 1-7.429 2-11"/><path fill="#7B7F84" d="M384 263c-5.273 3.223-5.273 3.223-7 4l-2-1c3.164-3.308 4.498-4.35 9-3"/><path fill="#8F9398" d="M408 251h-2v2c-2.709 1.354-5.01 1.065-8 1 3.156-3.156 5.69-4.437 10-3"/><path fill="#242423" d="M651 153c5.75.75 5.75.75 8 3-2.606.93-3.642 1.15-6.25.063L651 155z"/><path fill="#1D1D1C" d="m637 149 9 1c-3 2-3 2-6.187 1.625L637 151z"/><path fill="#7A7E82" d="M733 688h2c-1.477 4.677-1.477 4.677-4.125 6.313L729 695a56.5 56.5 0 0 1 4-7"/><path fill="#787C80" d="m746 671 1 3c-1.437 2.688-1.437 2.688-3 5l-3-1z"/><path fill="#141413" d="m148 647 2 1c.625 3.063.625 3.063 1 6l-3-1-1 2z"/><path fill="#8E9399" d="M270 443c1.274 2.547.802 3.428.063 6.125l-.59 2.195L269 453h-1c-1.125-5.625-1.125-5.625 0-9z"/><path fill="#3E3F40" d="m837 414 1 3 3 1-1 6c-2.296-3.445-2.54-5.938-3-10"/><path fill="#777C7F" d="M770 398c3.938 3.323 3.938 3.323 4.25 6.75L774 407c-2.503-2.938-3.47-5.179-4-9"/><path fill="#7B7F83" d="M370 267c2.25.25 2.25.25 4 1l-6 4-2-1c1.75-2.062 1.75-2.062 4-4"/><path fill="#1D1D1C" d="m759 214 7 5-4 1c-1.75-1.25-1.75-1.25-3-3z"/><path fill="#323231" d="M374 153c-2.675 1.663-5 3-8 4l-2-2a328 328 0 0 1 3.875-1.562l2.18-.88C372 152 372 152 374 153"/><path fill="#404042" d="M849 522h1v9l-2 1z"/><path fill="#404243" d="M849 498h1v12h-1z"/><path fill="#868B90" d="m432 789 5 1-1 2-4-2z"/><path fill="#898D92" d="M224 505h1v7h-1z"/><path fill="#272727" d="M328 168h5l-4 2z"/><path fill="#232422" d="m129 591 2 3-1 2z"/><path fill="#404141" d="M848 536h1v6h-1z"/><path fill="#898C92" d="M224 496h1v6h-1z"/><path fill="#484A48" d="m681 801 3 1-2 2z"/><path fill="#484A4A" d="m752 745 4 1-4 1z"/><path fill="#87898D" d="m264 658 2 1v2h-2z"/><path fill="#252524" d="M122 538h1v5h-1z"/><path fill="#434344" d="m841 437 1 4-2-3z"/><path fill="#444344" d="M840 432h1v5h-1z"/><path fill="#414243" d="m784 316 3 2h-3z"/><path fill="#2B2B2B" d="M472 128h5v1h-5z"/><path fill="#272827" d="m482 900 4 1Z"/><path fill="#242322" d="m306 845 3 1h-3z"/><path fill="#252422" d="m304 843 2 2-2 1z"/><path fill="#838A8E" d="m474 797 3 2h-3z"/><path fill="#8D9195" d="m438 752 4 1Z"/><path fill="#1F1F20" d="m232 240 3 1-3 1z"/><path fill="#434546" d="m618 197 2 1h-3z"/><path fill="#2D2D2D" d="m558 128 3 1h-3z"/><path fill="#262524" d="m511 901 3 1Z"/><path fill="#282726" d="m504 901 3 1Z"/><path fill="#292728" d="m588 894 2 1-2 1z"/><path fill="#242424" d="m419 891 3 1Z"/><path fill="#434345" d="m515 848 3 1Z"/><path fill="#454645" d="M609 833h2l-1 2z"/><path fill="#444646" d="m368 816 2 2h-2z"/><path fill="#48494A" d="m650 816 3 1Z"/><path fill="#464949" d="m370 816 3 1Z"/><path fill="#414444" d="m338 801 2 2h-2z"/><path fill="#858A90" d="m489 799 3 1Z"/><path fill="#868A8E" d="m457 795 3 1Z"/><path fill="#414443" d="M707 785h2l-1 2z"/><path fill="#242422" d="m228 781 2 2h-2z"/><path fill="#434345" d="m800 688 2 1-2 1z"/><path fill="#3E4041" d="m797 333 1 2-2-1z"/><path fill="#222220" d="m854 324 2 1-2 1z"/><path fill="#1F1E1E" d="m192 288 2 1-2 1z"/><path fill="#94979D" d="m553 269 3 1Z"/><path fill="#83888A" d="m613 248 3 1Z"/><path fill="#868A8D" d="m557 232 3 1Z"/><path fill="#878B8F" d="m460 232 3 1Z"/><path fill="#464B4B" d="m347 223 3 1Z"/><path fill="#212222" d="m289 193 1 2-2-1z"/><path fill="#454646" d="m594 190 3 1Z"/><path fill="#2A2B2A" d="m320 168 2 1-2 1z"/><path fill="#282928" d="m635 144 2 2h-2z"/><path fill="#2D2D2C" d="m562 129 3 1Z"/><path fill="#2C2E2C" d="m555 129 3 1Z"/><path fill="#2F2E2E" d="m551 128 3 1Z"/><path fill="#2D2F2E" d="m459 128 1 2-2-1z"/><path fill="#2A2929" d="m545 900 2 1Z"/><path fill="#262624" d="m617 887 2 1Z"/><path fill="#414242" d="m395 828 2 1Z"/><path fill="#474849" d="m649 818 2 1Z"/><path fill="#838A8E" d="m484 799 2 1Z"/><path fill="#242423" d="m236 790 2 1Z"/><path fill="#3C3D3B" d="m310 784 2 1Z"/><path fill="#232321" d="m217 771 2 1Z"/><path fill="#424443" d="m740 761 2 1Z"/><path fill="#90959A" d="m544 760 2 1Z"/><path fill="#909497" d="m541 760 2 1Z"/><path fill="#909599" d="m478 760 2 1Z"/><path fill="#8F9398" d="m475 760 2 1Z"/><path fill="#222220" d="m178 718 2 1Z"/><path fill="#92969B" d="m664 707 2 1Z"/><path fill="#434343" d="m808 675 2 1Z"/><path fill="#414345" d="m816 369 2 1Z"/><path fill="#86898F" d="m264 361 2 1Z"/><path fill="#848A8E" d="m685 288 2 1Z"/><path fill="#252523" d="m193 280 2 1Z"/><path fill="#232521" d="m200 272 2 1Z"/><path fill="#8A8F92" d="m403 249 2 1Z"/><path fill="#878C91" d="m598 242 2 1Z"/><path fill="#878B90" d="m595 241 2 1Z"/><path fill="#454748" d="m688 230 2 1Z"/><path fill="#8B8F92" d="m516 228 2 1Z"/><path fill="#888D91" d="m508 228 2 1Z"/><path fill="#898D91" d="m500 228 2 1Z"/><path fill="#212221" d="m756 210 2 1Z"/><path fill="#404244" d="m613 195 2 1Z"/><path fill="#272626" d="m316 176 2 1Z"/><path fill="#272827" d="m327 170 2 1Z"/><path fill="#262524" d="m690 168 2 1Z"/><path fill="#282828" d="m638 146 2 1Z"/><path fill="#272626" d="m389 144 2 1Z"/><path fill="#2C2D2C" d="m603 136 2 1Z"/><path fill="#2B2B2A" d="m565 130 2 1Z"/><path fill="#2D2E2C" d="m547 128 2 1Z"/><path fill="#2A2B29" d="m544 128 2 1Z"/><path fill="#2E2D2C" d="m469 128 2 1Z"/></svg>